<?xml version="1.0" standalone="no"?>
<!DOCTYPE svg PUBLIC "-//W3C//DTD SVG 20010904//EN"
 "http://www.w3.org/TR/2001/REC-SVG-20010904/DTD/svg10.dtd">
<svg version="1.0" xmlns="http://www.w3.org/2000/svg"
 width="1447.000000pt" height="1277.000000pt" viewBox="0 0 1447.000000 1277.000000"
 preserveAspectRatio="xMidYMid meet">

<g transform="translate(0.000000,1277.000000) scale(0.100000,-0.100000)"
fill="#000000" stroke="none">
<path d="M4762 9568 c-9 -9 -12 -539 -12 -2388 0 -2290 1 -2378 18 -2393 17
-16 129 -17 1399 -17 1324 0 1381 1 1396 18 15 16 17 53 17 310 0 279 -1 293
-20 312 -20 20 -33 20 -1050 20 l-1030 0 0 2048 c0 1630 -3 2052 -13 2072
l-13 25 -340 3 c-256 2 -343 -1 -352 -10z m655 -3160 c-1 -574 -2 -105 -2
1042 0 1147 1 1616 2 1043 2 -574 2 -1512 0 -2085z m-37 3072 c8 -15 9 -595 4
-2069 -6 -1756 -5 -2049 7 -2057 8 -5 456 -11 1049 -14 l1035 -5 3 -252 2
-253 -1335 0 -1335 0 0 2335 0 2335 280 0 c271 0 280 -1 290 -20z"/>
<path d="M7799 9563 c-11 -13 -14 -70 -14 -270 l0 -255 24 -19 c22 -18 42 -19
297 -19 l274 0 0 -1825 0 -1825 -279 0 -280 0 -20 -26 c-20 -25 -21 -39 -21
-264 0 -225 1 -239 21 -264 l20 -26 928 0 c886 0 929 1 944 18 15 16 17 50 17
274 0 234 -1 256 -18 271 -16 15 -52 17 -300 17 l-282 0 0 1825 0 1825 278 0
c235 0 281 2 300 16 22 15 22 18 22 278 0 190 -3 265 -12 274 -9 9 -234 12
-949 12 -859 0 -938 -1 -950 -17z m1858 -380 c-1 -65 -3 -12 -3 117 0 129 2
182 3 118 2 -65 2 -171 0 -235z m-39 100 c1 -117 1 -214 0 -215 -2 -1 -127 -5
-278 -8 l-275 -5 -5 -1880 -5 -1880 -5 1865 c-4 1469 -8 1861 -17 1844 -17
-30 -20 -3711 -3 -3728 7 -7 103 -13 293 -16 l282 -5 3 -212 2 -213 -880 0
-880 0 0 215 0 215 258 0 c212 0 262 3 278 15 10 8 15 15 9 16 -5 1 4 4 20 8
l30 6 3 1878 2 1877 -300 0 -300 0 0 220 0 220 883 -2 882 -3 3 -212z m39
-4335 c-1 -68 -3 -15 -3 117 0 132 2 187 3 123 2 -64 2 -172 0 -240z"/>
</g>
</svg>
